<svg width="559" height="404" viewBox="0 0 559 404" fill="none" xmlns="http://www.w3.org/2000/svg">
<rect width="559" height="404" rx="24" fill="black" fill-opacity="0.1"/>
<path d="M73.84 380C73.84 379.3 73.9473 378.67 74.162 378.11C74.386 377.541 74.7733 376.999 75.324 376.486C75.884 375.973 76.6587 375.455 77.648 374.932C78.1053 374.689 78.474 374.465 78.754 374.26C79.034 374.055 79.2393 373.835 79.37 373.602C79.5007 373.369 79.566 373.084 79.566 372.748C79.566 372.403 79.4913 372.104 79.342 371.852C79.1927 371.591 78.9687 371.385 78.67 371.236C78.3807 371.087 78.0167 371.012 77.578 371.012C76.878 371.012 76.3227 371.194 75.912 371.558C75.5107 371.922 75.2587 372.44 75.156 373.112L73.896 373.028C74.008 372.057 74.3813 371.283 75.016 370.704C75.6507 370.125 76.5047 369.836 77.578 369.836C78.2593 369.836 78.8427 369.957 79.328 370.2C79.8133 370.443 80.182 370.783 80.434 371.222C80.6953 371.651 80.826 372.151 80.826 372.72C80.826 373.224 80.742 373.663 80.574 374.036C80.406 374.4 80.1213 374.741 79.72 375.058C79.328 375.375 78.7867 375.716 78.096 376.08C77.2 376.556 76.5187 377.037 76.052 377.522C75.5947 378.007 75.352 378.441 75.324 378.824H80.826V380H73.84ZM85.8853 380.224C85.0826 380.224 84.3873 380.014 83.7993 379.594C83.2113 379.174 82.7539 378.577 82.4273 377.802C82.1099 377.027 81.9513 376.108 81.9513 375.044C81.9513 373.98 82.1099 373.061 82.4273 372.286C82.7539 371.502 83.2113 370.9 83.7993 370.48C84.3873 370.051 85.0826 369.836 85.8853 369.836C86.6973 369.836 87.3973 370.051 87.9853 370.48C88.5733 370.9 89.0259 371.497 89.3433 372.272C89.6699 373.047 89.8333 373.971 89.8333 375.044C89.8333 376.108 89.6699 377.027 89.3433 377.802C89.0259 378.577 88.5733 379.174 87.9853 379.594C87.3973 380.014 86.6973 380.224 85.8853 380.224ZM85.8853 379.048C86.7439 379.048 87.4066 378.703 87.8733 378.012C88.3399 377.312 88.5733 376.323 88.5733 375.044C88.5733 374.185 88.4659 373.457 88.2513 372.86C88.0459 372.253 87.7426 371.796 87.3413 371.488C86.9493 371.171 86.4639 371.012 85.8853 371.012C85.3159 371.012 84.8306 371.171 84.4293 371.488C84.0373 371.796 83.7339 372.253 83.5193 372.86C83.3139 373.457 83.2113 374.185 83.2113 375.044C83.2113 376.323 83.4446 377.312 83.9113 378.012C84.3779 378.703 85.0359 379.048 85.8853 379.048ZM94.7625 380V370.06H96.4425L99.6205 378.684L102.784 370.06H104.464V380H103.26V372.3L100.418 380H98.8085L95.9665 372.3V380H94.7625ZM108.457 380.168C107.692 380.168 107.08 379.991 106.623 379.636C106.175 379.281 105.951 378.787 105.951 378.152C105.951 377.517 106.138 377.018 106.511 376.654C106.884 376.29 107.477 376.033 108.289 375.884L110.921 375.394C110.921 374.769 110.772 374.302 110.473 373.994C110.184 373.686 109.745 373.532 109.157 373.532C108.644 373.532 108.238 373.649 107.939 373.882C107.64 374.106 107.435 374.433 107.323 374.862L106.077 374.764C106.217 374.064 106.553 373.499 107.085 373.07C107.626 372.631 108.317 372.412 109.157 372.412C110.109 372.412 110.837 372.683 111.341 373.224C111.845 373.756 112.097 374.493 112.097 375.436V378.502C112.097 378.67 112.125 378.791 112.181 378.866C112.246 378.931 112.349 378.964 112.489 378.964H112.783V380C112.746 380.009 112.685 380.014 112.601 380.014C112.517 380.023 112.428 380.028 112.335 380.028C111.999 380.028 111.724 379.977 111.509 379.874C111.304 379.762 111.154 379.594 111.061 379.37C110.968 379.137 110.921 378.833 110.921 378.46L111.061 378.488C110.996 378.805 110.837 379.095 110.585 379.356C110.333 379.608 110.02 379.809 109.647 379.958C109.274 380.098 108.877 380.168 108.457 380.168ZM108.569 379.132C109.064 379.132 109.484 379.039 109.829 378.852C110.184 378.656 110.454 378.395 110.641 378.068C110.828 377.732 110.921 377.359 110.921 376.948V376.416L108.513 376.864C108.009 376.957 107.659 377.102 107.463 377.298C107.276 377.485 107.183 377.732 107.183 378.04C107.183 378.385 107.304 378.656 107.547 378.852C107.799 379.039 108.14 379.132 108.569 379.132ZM113.866 382.1V381.064H114.72C114.982 381.064 115.173 381.022 115.294 380.938C115.425 380.863 115.523 380.737 115.588 380.56L115.854 379.86H115.448L112.732 372.58H114.02L116.232 378.768L118.346 372.58H119.634L116.624 380.938C116.484 381.339 116.274 381.633 115.994 381.82C115.714 382.007 115.327 382.1 114.832 382.1H113.866Z" fill="white"/>
<path d="M147.84 380C147.84 379.3 147.947 378.67 148.162 378.11C148.386 377.541 148.773 376.999 149.324 376.486C149.884 375.973 150.659 375.455 151.648 374.932C152.105 374.689 152.474 374.465 152.754 374.26C153.034 374.055 153.239 373.835 153.37 373.602C153.501 373.369 153.566 373.084 153.566 372.748C153.566 372.403 153.491 372.104 153.342 371.852C153.193 371.591 152.969 371.385 152.67 371.236C152.381 371.087 152.017 371.012 151.578 371.012C150.878 371.012 150.323 371.194 149.912 371.558C149.511 371.922 149.259 372.44 149.156 373.112L147.896 373.028C148.008 372.057 148.381 371.283 149.016 370.704C149.651 370.125 150.505 369.836 151.578 369.836C152.259 369.836 152.843 369.957 153.328 370.2C153.813 370.443 154.182 370.783 154.434 371.222C154.695 371.651 154.826 372.151 154.826 372.72C154.826 373.224 154.742 373.663 154.574 374.036C154.406 374.4 154.121 374.741 153.72 375.058C153.328 375.375 152.787 375.716 152.096 376.08C151.2 376.556 150.519 377.037 150.052 377.522C149.595 378.007 149.352 378.441 149.324 378.824H154.826V380H147.84ZM158.02 380V372.636H155.948V371.6H156.788C157.152 371.6 157.441 371.553 157.656 371.46C157.88 371.367 158.039 371.208 158.132 370.984C158.225 370.76 158.272 370.452 158.272 370.06H159.224V380H158.02ZM167.803 380.224C167.187 380.224 166.641 380.079 166.165 379.79C165.689 379.491 165.316 379.081 165.045 378.558C164.784 378.035 164.648 377.433 164.639 376.752L165.871 376.668C165.88 377.433 166.053 378.021 166.389 378.432C166.725 378.843 167.196 379.048 167.803 379.048C168.438 379.048 168.923 378.829 169.259 378.39C169.604 377.951 169.777 377.331 169.777 376.528V370.06H170.981V376.528C170.981 377.284 170.85 377.942 170.589 378.502C170.328 379.053 169.959 379.477 169.483 379.776C169.016 380.075 168.456 380.224 167.803 380.224ZM175.331 380.168C174.593 380.168 174.001 379.921 173.553 379.426C173.114 378.922 172.895 378.231 172.895 377.354V372.58H174.071V377.032C174.071 377.751 174.197 378.283 174.449 378.628C174.71 378.964 175.107 379.132 175.639 379.132C176.227 379.132 176.689 378.945 177.025 378.572C177.361 378.189 177.529 377.667 177.529 377.004V372.58H178.705V380H177.585V378.166L177.767 378.264C177.617 378.871 177.333 379.342 176.913 379.678C176.493 380.005 175.965 380.168 175.331 380.168ZM180.667 380V372.58H181.745L181.787 374.47L181.647 374.344C181.741 373.905 181.904 373.546 182.137 373.266C182.371 372.977 182.651 372.762 182.977 372.622C183.313 372.482 183.673 372.412 184.055 372.412C184.625 372.412 185.091 372.538 185.455 372.79C185.829 373.042 186.104 373.383 186.281 373.812C186.468 374.232 186.561 374.703 186.561 375.226V380H185.385V375.562C185.385 375.105 185.329 374.722 185.217 374.414C185.115 374.097 184.947 373.859 184.713 373.7C184.48 373.532 184.177 373.448 183.803 373.448C183.234 373.448 182.763 373.63 182.389 373.994C182.025 374.349 181.843 374.871 181.843 375.562V380H180.667ZM191.256 380.168C190.556 380.168 189.949 380.009 189.436 379.692C188.932 379.375 188.54 378.927 188.26 378.348C187.989 377.76 187.854 377.074 187.854 376.29C187.854 375.506 187.989 374.825 188.26 374.246C188.54 373.667 188.927 373.219 189.422 372.902C189.926 372.575 190.519 372.412 191.2 372.412C191.844 372.412 192.413 372.566 192.908 372.874C193.403 373.173 193.785 373.611 194.056 374.19C194.336 374.769 194.476 375.473 194.476 376.304V376.654H189.086C189.133 377.447 189.343 378.045 189.716 378.446C190.099 378.847 190.612 379.048 191.256 379.048C191.741 379.048 192.138 378.936 192.446 378.712C192.763 378.479 192.983 378.175 193.104 377.802L194.364 377.9C194.168 378.563 193.795 379.109 193.244 379.538C192.703 379.958 192.04 380.168 191.256 380.168ZM189.086 375.618H193.188C193.132 374.899 192.922 374.372 192.558 374.036C192.203 373.7 191.751 373.532 191.2 373.532C190.631 373.532 190.159 373.709 189.786 374.064C189.422 374.409 189.189 374.927 189.086 375.618Z" fill="white"/>
<path d="M223.84 380C223.84 379.3 223.947 378.67 224.162 378.11C224.386 377.541 224.773 376.999 225.324 376.486C225.884 375.973 226.659 375.455 227.648 374.932C228.105 374.689 228.474 374.465 228.754 374.26C229.034 374.055 229.239 373.835 229.37 373.602C229.501 373.369 229.566 373.084 229.566 372.748C229.566 372.403 229.491 372.104 229.342 371.852C229.193 371.591 228.969 371.385 228.67 371.236C228.381 371.087 228.017 371.012 227.578 371.012C226.878 371.012 226.323 371.194 225.912 371.558C225.511 371.922 225.259 372.44 225.156 373.112L223.896 373.028C224.008 372.057 224.381 371.283 225.016 370.704C225.651 370.125 226.505 369.836 227.578 369.836C228.259 369.836 228.843 369.957 229.328 370.2C229.813 370.443 230.182 370.783 230.434 371.222C230.695 371.651 230.826 372.151 230.826 372.72C230.826 373.224 230.742 373.663 230.574 374.036C230.406 374.4 230.121 374.741 229.72 375.058C229.328 375.375 228.787 375.716 228.096 376.08C227.2 376.556 226.519 377.037 226.052 377.522C225.595 378.007 225.352 378.441 225.324 378.824H230.826V380H223.84ZM235.756 380.224C235.056 380.224 234.449 380.107 233.936 379.874C233.432 379.641 233.031 379.314 232.732 378.894C232.443 378.474 232.275 377.989 232.228 377.438L233.488 377.354C233.563 377.914 233.801 378.339 234.202 378.628C234.613 378.908 235.131 379.048 235.756 379.048C236.456 379.048 237.011 378.852 237.422 378.46C237.833 378.059 238.038 377.508 238.038 376.808C238.038 376.341 237.945 375.94 237.758 375.604C237.581 375.259 237.319 374.993 236.974 374.806C236.629 374.619 236.213 374.526 235.728 374.526C235.271 374.526 234.855 374.624 234.482 374.82C234.109 375.016 233.843 375.291 233.684 375.646H232.396L233.054 370.06H238.626V371.236H234.16L233.712 374.904L233.488 374.68C233.637 374.391 233.833 374.153 234.076 373.966C234.328 373.77 234.613 373.625 234.93 373.532C235.257 373.429 235.597 373.378 235.952 373.378C236.615 373.378 237.198 373.527 237.702 373.826C238.206 374.115 238.598 374.521 238.878 375.044C239.158 375.557 239.298 376.145 239.298 376.808C239.298 377.471 239.149 378.063 238.85 378.586C238.551 379.099 238.136 379.501 237.604 379.79C237.072 380.079 236.456 380.224 235.756 380.224ZM247.194 380.224C246.578 380.224 246.032 380.079 245.556 379.79C245.08 379.491 244.706 379.081 244.436 378.558C244.174 378.035 244.039 377.433 244.03 376.752L245.262 376.668C245.271 377.433 245.444 378.021 245.78 378.432C246.116 378.843 246.587 379.048 247.194 379.048C247.828 379.048 248.314 378.829 248.65 378.39C248.995 377.951 249.168 377.331 249.168 376.528V370.06H250.372V376.528C250.372 377.284 250.241 377.942 249.98 378.502C249.718 379.053 249.35 379.477 248.874 379.776C248.407 380.075 247.847 380.224 247.194 380.224ZM254.721 380.168C253.984 380.168 253.391 379.921 252.943 379.426C252.504 378.922 252.285 378.231 252.285 377.354V372.58H253.461V377.032C253.461 377.751 253.587 378.283 253.839 378.628C254.1 378.964 254.497 379.132 255.029 379.132C255.617 379.132 256.079 378.945 256.415 378.572C256.751 378.189 256.919 377.667 256.919 377.004V372.58H258.095V380H256.975V378.166L257.157 378.264C257.008 378.871 256.723 379.342 256.303 379.678C255.883 380.005 255.356 380.168 254.721 380.168ZM261.514 380C261.085 380 260.735 379.888 260.464 379.664C260.193 379.44 260.058 379.085 260.058 378.6V370.06H261.234V378.502C261.234 378.651 261.271 378.768 261.346 378.852C261.43 378.927 261.547 378.964 261.696 378.964H262.34V380H261.514ZM263.491 382.1V381.064H264.345C264.606 381.064 264.797 381.022 264.919 380.938C265.049 380.863 265.147 380.737 265.213 380.56L265.479 379.86H265.073L262.357 372.58H263.645L265.857 378.768L267.971 372.58H269.259L266.249 380.938C266.109 381.339 265.899 381.633 265.619 381.82C265.339 382.007 264.951 382.1 264.457 382.1H263.491Z" fill="white"/>
<path d="M307.368 380.224C306.668 380.224 306.061 380.107 305.548 379.874C305.044 379.641 304.643 379.314 304.344 378.894C304.055 378.474 303.887 377.989 303.84 377.438L305.1 377.354C305.175 377.914 305.413 378.339 305.814 378.628C306.225 378.908 306.743 379.048 307.368 379.048C308.068 379.048 308.623 378.852 309.034 378.46C309.445 378.059 309.65 377.508 309.65 376.808C309.65 376.341 309.557 375.94 309.37 375.604C309.193 375.259 308.931 374.993 308.586 374.806C308.241 374.619 307.825 374.526 307.34 374.526C306.883 374.526 306.467 374.624 306.094 374.82C305.721 375.016 305.455 375.291 305.296 375.646H304.008L304.666 370.06H310.238V371.236H305.772L305.324 374.904L305.1 374.68C305.249 374.391 305.445 374.153 305.688 373.966C305.94 373.77 306.225 373.625 306.542 373.532C306.869 373.429 307.209 373.378 307.564 373.378C308.227 373.378 308.81 373.527 309.314 373.826C309.818 374.115 310.21 374.521 310.49 375.044C310.77 375.557 310.91 376.145 310.91 376.808C310.91 377.471 310.761 378.063 310.462 378.586C310.163 379.099 309.748 379.501 309.216 379.79C308.684 380.079 308.068 380.224 307.368 380.224ZM314.984 380L318.568 370.06H320.192L323.776 380H322.46L321.466 377.172H317.294L316.3 380H314.984ZM317.7 375.996H321.06L319.38 371.11L317.7 375.996ZM327.058 380.168C326.32 380.168 325.728 379.921 325.28 379.426C324.841 378.922 324.622 378.231 324.622 377.354V372.58H325.798V377.032C325.798 377.751 325.924 378.283 326.176 378.628C326.437 378.964 326.834 379.132 327.366 379.132C327.954 379.132 328.416 378.945 328.752 378.572C329.088 378.189 329.256 377.667 329.256 377.004V372.58H330.432V380H329.312V378.166L329.494 378.264C329.344 378.871 329.06 379.342 328.64 379.678C328.22 380.005 327.692 380.168 327.058 380.168ZM335.072 382.268C334.54 382.268 334.059 382.179 333.63 382.002C333.2 381.825 332.841 381.573 332.552 381.246C332.262 380.919 332.066 380.541 331.964 380.112L333.196 380.028C333.308 380.373 333.504 380.644 333.784 380.84C334.073 381.045 334.502 381.148 335.072 381.148C335.744 381.148 336.257 381.013 336.612 380.742C336.976 380.471 337.158 380.065 337.158 379.524V378.32C336.98 378.712 336.696 379.025 336.304 379.258C335.912 379.491 335.473 379.608 334.988 379.608C334.362 379.608 333.802 379.454 333.308 379.146C332.822 378.838 332.44 378.413 332.16 377.872C331.889 377.331 331.754 376.71 331.754 376.01C331.754 375.301 331.889 374.68 332.16 374.148C332.43 373.607 332.804 373.182 333.28 372.874C333.765 372.566 334.316 372.412 334.932 372.412C335.454 372.412 335.921 372.533 336.332 372.776C336.752 373.019 337.046 373.345 337.214 373.756V372.58H338.334V379.496C338.334 380.075 338.203 380.569 337.942 380.98C337.68 381.4 337.307 381.717 336.822 381.932C336.336 382.156 335.753 382.268 335.072 382.268ZM335.044 378.488C335.678 378.488 336.187 378.269 336.57 377.83C336.952 377.382 337.148 376.775 337.158 376.01C337.167 375.497 337.083 375.058 336.906 374.694C336.738 374.321 336.49 374.036 336.164 373.84C335.846 373.635 335.473 373.532 335.044 373.532C334.39 373.532 333.882 373.756 333.518 374.204C333.163 374.643 332.986 375.245 332.986 376.01C332.986 376.775 333.168 377.382 333.532 377.83C333.905 378.269 334.409 378.488 335.044 378.488Z" fill="white"/>
<path d="M377.632 380V372.636H375.56V371.6H376.4C376.764 371.6 377.053 371.553 377.268 371.46C377.492 371.367 377.651 371.208 377.744 370.984C377.837 370.76 377.884 370.452 377.884 370.06H378.836V380H377.632ZM384.59 380.224C383.788 380.224 383.092 380.014 382.504 379.594C381.916 379.174 381.459 378.577 381.132 377.802C380.815 377.027 380.656 376.108 380.656 375.044C380.656 373.98 380.815 373.061 381.132 372.286C381.459 371.502 381.916 370.9 382.504 370.48C383.092 370.051 383.788 369.836 384.59 369.836C385.402 369.836 386.102 370.051 386.69 370.48C387.278 370.9 387.731 371.497 388.048 372.272C388.375 373.047 388.538 373.971 388.538 375.044C388.538 376.108 388.375 377.027 388.048 377.802C387.731 378.577 387.278 379.174 386.69 379.594C386.102 380.014 385.402 380.224 384.59 380.224ZM384.59 379.048C385.449 379.048 386.112 378.703 386.578 378.012C387.045 377.312 387.278 376.323 387.278 375.044C387.278 374.185 387.171 373.457 386.956 372.86C386.751 372.253 386.448 371.796 386.046 371.488C385.654 371.171 385.169 371.012 384.59 371.012C384.021 371.012 383.536 371.171 383.134 371.488C382.742 371.796 382.439 372.253 382.224 372.86C382.019 373.457 381.916 374.185 381.916 375.044C381.916 376.323 382.15 377.312 382.616 378.012C383.083 378.703 383.741 379.048 384.59 379.048ZM396.884 380.224C396.118 380.224 395.451 380.079 394.882 379.79C394.312 379.501 393.86 379.104 393.524 378.6C393.197 378.087 393.006 377.494 392.95 376.822L394.21 376.738C394.275 377.233 394.42 377.653 394.644 377.998C394.868 378.343 395.166 378.605 395.54 378.782C395.922 378.959 396.38 379.048 396.912 379.048C397.378 379.048 397.775 378.987 398.102 378.866C398.428 378.745 398.676 378.567 398.844 378.334C399.021 378.101 399.11 377.816 399.11 377.48C399.11 377.172 399.035 376.901 398.886 376.668C398.746 376.425 398.47 376.206 398.06 376.01C397.658 375.805 397.061 375.604 396.268 375.408C395.502 375.212 394.891 374.997 394.434 374.764C393.986 374.531 393.659 374.246 393.454 373.91C393.258 373.574 393.16 373.159 393.16 372.664C393.16 372.104 393.29 371.614 393.552 371.194C393.822 370.765 394.205 370.433 394.7 370.2C395.194 369.957 395.782 369.836 396.464 369.836C397.192 369.836 397.817 369.976 398.34 370.256C398.862 370.527 399.278 370.9 399.586 371.376C399.894 371.852 400.085 372.393 400.16 373L398.9 373.084C398.844 372.683 398.713 372.328 398.508 372.02C398.312 371.703 398.041 371.455 397.696 371.278C397.35 371.101 396.93 371.012 396.436 371.012C395.82 371.012 395.33 371.161 394.966 371.46C394.602 371.749 394.42 372.132 394.42 372.608C394.42 372.916 394.49 373.173 394.63 373.378C394.779 373.574 395.04 373.751 395.414 373.91C395.787 374.059 396.324 374.223 397.024 374.4C397.854 374.605 398.512 374.853 398.998 375.142C399.492 375.422 399.842 375.749 400.048 376.122C400.262 376.495 400.37 376.92 400.37 377.396C400.37 377.975 400.22 378.479 399.922 378.908C399.623 379.328 399.212 379.655 398.69 379.888C398.167 380.112 397.565 380.224 396.884 380.224ZM405.064 380.168C404.364 380.168 403.757 380.009 403.244 379.692C402.74 379.375 402.348 378.927 402.068 378.348C401.797 377.76 401.662 377.074 401.662 376.29C401.662 375.506 401.797 374.825 402.068 374.246C402.348 373.667 402.735 373.219 403.23 372.902C403.734 372.575 404.327 372.412 405.008 372.412C405.652 372.412 406.221 372.566 406.716 372.874C407.211 373.173 407.593 373.611 407.864 374.19C408.144 374.769 408.284 375.473 408.284 376.304V376.654H402.894C402.941 377.447 403.151 378.045 403.524 378.446C403.907 378.847 404.42 379.048 405.064 379.048C405.549 379.048 405.946 378.936 406.254 378.712C406.571 378.479 406.791 378.175 406.912 377.802L408.172 377.9C407.976 378.563 407.603 379.109 407.052 379.538C406.511 379.958 405.848 380.168 405.064 380.168ZM402.894 375.618H406.996C406.94 374.899 406.73 374.372 406.366 374.036C406.011 373.7 405.559 373.532 405.008 373.532C404.439 373.532 403.967 373.709 403.594 374.064C403.23 374.409 402.997 374.927 402.894 375.618ZM409.597 382.1V372.58H410.689L410.717 374.176L410.549 374.092C410.736 373.541 411.044 373.126 411.473 372.846C411.912 372.557 412.416 372.412 412.985 372.412C413.722 372.412 414.324 372.594 414.791 372.958C415.267 373.322 415.617 373.798 415.841 374.386C416.074 374.974 416.191 375.609 416.191 376.29C416.191 376.971 416.074 377.606 415.841 378.194C415.617 378.782 415.267 379.258 414.791 379.622C414.324 379.986 413.722 380.168 412.985 380.168C412.602 380.168 412.243 380.103 411.907 379.972C411.58 379.841 411.3 379.659 411.067 379.426C410.843 379.193 410.689 378.917 410.605 378.6L410.773 378.404V382.1H409.597ZM412.873 379.048C413.517 379.048 414.026 378.805 414.399 378.32C414.772 377.835 414.959 377.158 414.959 376.29C414.959 375.422 414.772 374.745 414.399 374.26C414.026 373.775 413.517 373.532 412.873 373.532C412.444 373.532 412.07 373.635 411.753 373.84C411.445 374.045 411.202 374.353 411.025 374.764C410.857 375.175 410.773 375.683 410.773 376.29C410.773 376.897 410.857 377.405 411.025 377.816C411.193 378.227 411.436 378.535 411.753 378.74C412.07 378.945 412.444 379.048 412.873 379.048Z" fill="white"/>
<path d="M449.84 380C449.84 379.3 449.947 378.67 450.162 378.11C450.386 377.541 450.773 376.999 451.324 376.486C451.884 375.973 452.659 375.455 453.648 374.932C454.105 374.689 454.474 374.465 454.754 374.26C455.034 374.055 455.239 373.835 455.37 373.602C455.501 373.369 455.566 373.084 455.566 372.748C455.566 372.403 455.491 372.104 455.342 371.852C455.193 371.591 454.969 371.385 454.67 371.236C454.381 371.087 454.017 371.012 453.578 371.012C452.878 371.012 452.323 371.194 451.912 371.558C451.511 371.922 451.259 372.44 451.156 373.112L449.896 373.028C450.008 372.057 450.381 371.283 451.016 370.704C451.651 370.125 452.505 369.836 453.578 369.836C454.259 369.836 454.843 369.957 455.328 370.2C455.813 370.443 456.182 370.783 456.434 371.222C456.695 371.651 456.826 372.151 456.826 372.72C456.826 373.224 456.742 373.663 456.574 374.036C456.406 374.4 456.121 374.741 455.72 375.058C455.328 375.375 454.787 375.716 454.096 376.08C453.2 376.556 452.519 377.037 452.052 377.522C451.595 378.007 451.352 378.441 451.324 378.824H456.826V380H449.84ZM461.616 380.224C460.907 380.224 460.272 380.112 459.712 379.888C459.161 379.664 458.727 379.333 458.41 378.894C458.102 378.455 457.948 377.914 457.948 377.27C457.948 376.551 458.163 375.959 458.592 375.492C459.021 375.016 459.591 374.694 460.3 374.526L460.328 374.806C459.759 374.647 459.297 374.391 458.942 374.036C458.597 373.672 458.424 373.182 458.424 372.566C458.424 372.043 458.555 371.577 458.816 371.166C459.087 370.755 459.46 370.433 459.936 370.2C460.412 369.957 460.972 369.836 461.616 369.836C462.26 369.836 462.82 369.957 463.296 370.2C463.781 370.433 464.155 370.755 464.416 371.166C464.677 371.577 464.808 372.043 464.808 372.566C464.808 373.182 464.635 373.672 464.29 374.036C463.945 374.391 463.483 374.647 462.904 374.806L462.932 374.526C463.651 374.694 464.22 375.016 464.64 375.492C465.069 375.959 465.284 376.551 465.284 377.27C465.284 377.914 465.125 378.455 464.808 378.894C464.5 379.333 464.071 379.664 463.52 379.888C462.969 380.112 462.335 380.224 461.616 380.224ZM461.616 379.048C462.353 379.048 462.937 378.899 463.366 378.6C463.805 378.292 464.024 377.825 464.024 377.2C464.024 376.621 463.828 376.159 463.436 375.814C463.053 375.459 462.447 375.282 461.616 375.282C460.795 375.282 460.188 375.459 459.796 375.814C459.404 376.159 459.208 376.621 459.208 377.2C459.208 377.825 459.423 378.292 459.852 378.6C460.291 378.899 460.879 379.048 461.616 379.048ZM461.616 374.162C462.232 374.162 462.708 374.031 463.044 373.77C463.38 373.499 463.548 373.098 463.548 372.566C463.548 372.09 463.385 371.712 463.058 371.432C462.731 371.152 462.251 371.012 461.616 371.012C460.991 371.012 460.51 371.152 460.174 371.432C459.847 371.712 459.684 372.09 459.684 372.566C459.684 373.098 459.852 373.499 460.188 373.77C460.524 374.031 461 374.162 461.616 374.162ZM473.481 380.224C472.716 380.224 472.049 380.079 471.479 379.79C470.91 379.501 470.457 379.104 470.121 378.6C469.795 378.087 469.603 377.494 469.547 376.822L470.807 376.738C470.873 377.233 471.017 377.653 471.241 377.998C471.465 378.343 471.764 378.605 472.137 378.782C472.52 378.959 472.977 379.048 473.509 379.048C473.976 379.048 474.373 378.987 474.699 378.866C475.026 378.745 475.273 378.567 475.441 378.334C475.619 378.101 475.707 377.816 475.707 377.48C475.707 377.172 475.633 376.901 475.483 376.668C475.343 376.425 475.068 376.206 474.657 376.01C474.256 375.805 473.659 375.604 472.865 375.408C472.1 375.212 471.489 374.997 471.031 374.764C470.583 374.531 470.257 374.246 470.051 373.91C469.855 373.574 469.757 373.159 469.757 372.664C469.757 372.104 469.888 371.614 470.149 371.194C470.42 370.765 470.803 370.433 471.297 370.2C471.792 369.957 472.38 369.836 473.061 369.836C473.789 369.836 474.415 369.976 474.937 370.256C475.46 370.527 475.875 370.9 476.183 371.376C476.491 371.852 476.683 372.393 476.757 373L475.497 373.084C475.441 372.683 475.311 372.328 475.105 372.02C474.909 371.703 474.639 371.455 474.293 371.278C473.948 371.101 473.528 371.012 473.033 371.012C472.417 371.012 471.927 371.161 471.563 371.46C471.199 371.749 471.017 372.132 471.017 372.608C471.017 372.916 471.087 373.173 471.227 373.378C471.377 373.574 471.638 373.751 472.011 373.91C472.385 374.059 472.921 374.223 473.621 374.4C474.452 374.605 475.11 374.853 475.595 375.142C476.09 375.422 476.44 375.749 476.645 376.122C476.86 376.495 476.967 376.92 476.967 377.396C476.967 377.975 476.818 378.479 476.519 378.908C476.221 379.328 475.81 379.655 475.287 379.888C474.765 380.112 474.163 380.224 473.481 380.224ZM481.662 380.168C480.962 380.168 480.355 380.009 479.842 379.692C479.338 379.375 478.946 378.927 478.666 378.348C478.395 377.76 478.26 377.074 478.26 376.29C478.26 375.506 478.395 374.825 478.666 374.246C478.946 373.667 479.333 373.219 479.828 372.902C480.332 372.575 480.924 372.412 481.606 372.412C482.25 372.412 482.819 372.566 483.314 372.874C483.808 373.173 484.191 373.611 484.462 374.19C484.742 374.769 484.882 375.473 484.882 376.304V376.654H479.492C479.538 377.447 479.748 378.045 480.122 378.446C480.504 378.847 481.018 379.048 481.662 379.048C482.147 379.048 482.544 378.936 482.852 378.712C483.169 378.479 483.388 378.175 483.51 377.802L484.77 377.9C484.574 378.563 484.2 379.109 483.65 379.538C483.108 379.958 482.446 380.168 481.662 380.168ZM479.492 375.618H483.594C483.538 374.899 483.328 374.372 482.964 374.036C482.609 373.7 482.156 373.532 481.606 373.532C481.036 373.532 480.565 373.709 480.192 374.064C479.828 374.409 479.594 374.927 479.492 375.618ZM486.195 382.1V372.58H487.287L487.315 374.176L487.147 374.092C487.333 373.541 487.641 373.126 488.071 372.846C488.509 372.557 489.013 372.412 489.583 372.412C490.32 372.412 490.922 372.594 491.389 372.958C491.865 373.322 492.215 373.798 492.439 374.386C492.672 374.974 492.789 375.609 492.789 376.29C492.789 376.971 492.672 377.606 492.439 378.194C492.215 378.782 491.865 379.258 491.389 379.622C490.922 379.986 490.32 380.168 489.583 380.168C489.2 380.168 488.841 380.103 488.505 379.972C488.178 379.841 487.898 379.659 487.665 379.426C487.441 379.193 487.287 378.917 487.203 378.6L487.371 378.404V382.1H486.195ZM489.471 379.048C490.115 379.048 490.623 378.805 490.997 378.32C491.37 377.835 491.557 377.158 491.557 376.29C491.557 375.422 491.37 374.745 490.997 374.26C490.623 373.775 490.115 373.532 489.471 373.532C489.041 373.532 488.668 373.635 488.351 373.84C488.043 374.045 487.8 374.353 487.623 374.764C487.455 375.175 487.371 375.683 487.371 376.29C487.371 376.897 487.455 377.405 487.623 377.816C487.791 378.227 488.033 378.535 488.351 378.74C488.668 378.945 489.041 379.048 489.471 379.048Z" fill="white"/>
<path d="M26.132 116V108.636H24.06V107.6H24.9C25.264 107.6 25.5533 107.553 25.768 107.46C25.992 107.367 26.1507 107.208 26.244 106.984C26.3373 106.76 26.384 106.452 26.384 106.06H27.336V116H26.132ZM33.0903 116.224C32.2877 116.224 31.5923 116.014 31.0043 115.594C30.4163 115.174 29.959 114.577 29.6323 113.802C29.315 113.027 29.1563 112.108 29.1563 111.044C29.1563 109.98 29.315 109.061 29.6323 108.286C29.959 107.502 30.4163 106.9 31.0043 106.48C31.5923 106.051 32.2877 105.836 33.0903 105.836C33.9023 105.836 34.6023 106.051 35.1903 106.48C35.7783 106.9 36.231 107.497 36.5483 108.272C36.875 109.047 37.0383 109.971 37.0383 111.044C37.0383 112.108 36.875 113.027 36.5483 113.802C36.231 114.577 35.7783 115.174 35.1903 115.594C34.6023 116.014 33.9023 116.224 33.0903 116.224ZM33.0903 115.048C33.949 115.048 34.6117 114.703 35.0783 114.012C35.545 113.312 35.7783 112.323 35.7783 111.044C35.7783 110.185 35.671 109.457 35.4563 108.86C35.251 108.253 34.9477 107.796 34.5463 107.488C34.1543 107.171 33.669 107.012 33.0903 107.012C32.521 107.012 32.0357 107.171 31.6343 107.488C31.2423 107.796 30.939 108.253 30.7243 108.86C30.519 109.457 30.4163 110.185 30.4163 111.044C30.4163 112.323 30.6497 113.312 31.1163 114.012C31.583 114.703 32.241 115.048 33.0903 115.048ZM42.0935 116.224C41.2909 116.224 40.5955 116.014 40.0075 115.594C39.4195 115.174 38.9622 114.577 38.6355 113.802C38.3182 113.027 38.1595 112.108 38.1595 111.044C38.1595 109.98 38.3182 109.061 38.6355 108.286C38.9622 107.502 39.4195 106.9 40.0075 106.48C40.5955 106.051 41.2909 105.836 42.0935 105.836C42.9055 105.836 43.6055 106.051 44.1935 106.48C44.7815 106.9 45.2342 107.497 45.5515 108.272C45.8782 109.047 46.0415 109.971 46.0415 111.044C46.0415 112.108 45.8782 113.027 45.5515 113.802C45.2342 114.577 44.7815 115.174 44.1935 115.594C43.6055 116.014 42.9055 116.224 42.0935 116.224ZM42.0935 115.048C42.9522 115.048 43.6149 114.703 44.0815 114.012C44.5482 113.312 44.7815 112.323 44.7815 111.044C44.7815 110.185 44.6742 109.457 44.4595 108.86C44.2542 108.253 43.9509 107.796 43.5495 107.488C43.1575 107.171 42.6722 107.012 42.0935 107.012C41.5242 107.012 41.0389 107.171 40.6375 107.488C40.2455 107.796 39.9422 108.253 39.7275 108.86C39.5222 109.457 39.4195 110.185 39.4195 111.044C39.4195 112.323 39.6529 113.312 40.1195 114.012C40.5862 114.703 41.2442 115.048 42.0935 115.048Z" fill="white"/>
<path d="M30.728 164.224C30.0187 164.224 29.384 164.112 28.824 163.888C28.2733 163.664 27.8393 163.333 27.522 162.894C27.214 162.455 27.06 161.914 27.06 161.27C27.06 160.551 27.2747 159.959 27.704 159.492C28.1333 159.016 28.7027 158.694 29.412 158.526L29.44 158.806C28.8707 158.647 28.4087 158.391 28.054 158.036C27.7087 157.672 27.536 157.182 27.536 156.566C27.536 156.043 27.6667 155.577 27.928 155.166C28.1987 154.755 28.572 154.433 29.048 154.2C29.524 153.957 30.084 153.836 30.728 153.836C31.372 153.836 31.932 153.957 32.408 154.2C32.8933 154.433 33.2667 154.755 33.528 155.166C33.7893 155.577 33.92 156.043 33.92 156.566C33.92 157.182 33.7473 157.672 33.402 158.036C33.0567 158.391 32.5947 158.647 32.016 158.806L32.044 158.526C32.7627 158.694 33.332 159.016 33.752 159.492C34.1813 159.959 34.396 160.551 34.396 161.27C34.396 161.914 34.2373 162.455 33.92 162.894C33.612 163.333 33.1827 163.664 32.632 163.888C32.0813 164.112 31.4467 164.224 30.728 164.224ZM30.728 163.048C31.4653 163.048 32.0487 162.899 32.478 162.6C32.9167 162.292 33.136 161.825 33.136 161.2C33.136 160.621 32.94 160.159 32.548 159.814C32.1653 159.459 31.5587 159.282 30.728 159.282C29.9067 159.282 29.3 159.459 28.908 159.814C28.516 160.159 28.32 160.621 28.32 161.2C28.32 161.825 28.5347 162.292 28.964 162.6C29.4027 162.899 29.9907 163.048 30.728 163.048ZM30.728 158.162C31.344 158.162 31.82 158.031 32.156 157.77C32.492 157.499 32.66 157.098 32.66 156.566C32.66 156.09 32.4967 155.712 32.17 155.432C31.8433 155.152 31.3627 155.012 30.728 155.012C30.1027 155.012 29.622 155.152 29.286 155.432C28.9593 155.712 28.796 156.09 28.796 156.566C28.796 157.098 28.964 157.499 29.3 157.77C29.636 158.031 30.112 158.162 30.728 158.162ZM39.3032 164.224C38.5006 164.224 37.8052 164.014 37.2172 163.594C36.6292 163.174 36.1719 162.577 35.8452 161.802C35.5279 161.027 35.3692 160.108 35.3692 159.044C35.3692 157.98 35.5279 157.061 35.8452 156.286C36.1719 155.502 36.6292 154.9 37.2172 154.48C37.8052 154.051 38.5006 153.836 39.3032 153.836C40.1152 153.836 40.8152 154.051 41.4032 154.48C41.9912 154.9 42.4439 155.497 42.7612 156.272C43.0879 157.047 43.2512 157.971 43.2512 159.044C43.2512 160.108 43.0879 161.027 42.7612 161.802C42.4439 162.577 41.9912 163.174 41.4032 163.594C40.8152 164.014 40.1152 164.224 39.3032 164.224ZM39.3032 163.048C40.1619 163.048 40.8246 162.703 41.2912 162.012C41.7579 161.312 41.9912 160.323 41.9912 159.044C41.9912 158.185 41.8839 157.457 41.6692 156.86C41.4639 156.253 41.1606 155.796 40.7592 155.488C40.3672 155.171 39.8819 155.012 39.3032 155.012C38.7339 155.012 38.2486 155.171 37.8472 155.488C37.4552 155.796 37.1519 156.253 36.9372 156.86C36.7319 157.457 36.6292 158.185 36.6292 159.044C36.6292 160.323 36.8626 161.312 37.3292 162.012C37.7959 162.703 38.4539 163.048 39.3032 163.048Z" fill="white"/>
<path d="M30.868 212.224C30.1213 212.224 29.482 212.056 28.95 211.72C28.4273 211.375 28.026 210.871 27.746 210.208C27.4753 209.545 27.34 208.743 27.34 207.8C27.34 206.979 27.4053 206.209 27.536 205.49C27.676 204.771 27.8953 204.141 28.194 203.6C28.502 203.049 28.9033 202.62 29.398 202.312C29.902 201.995 30.5227 201.836 31.26 201.836C32.1467 201.836 32.8327 202.055 33.318 202.494C33.8033 202.923 34.144 203.488 34.34 204.188L33.08 204.3C32.968 203.908 32.772 203.595 32.492 203.362C32.2213 203.129 31.8107 203.012 31.26 203.012C30.4387 203.012 29.79 203.362 29.314 204.062C28.8473 204.762 28.6 205.821 28.572 207.24L28.32 207.184C28.4227 206.848 28.6 206.54 28.852 206.26C29.1133 205.971 29.4307 205.742 29.804 205.574C30.1867 205.397 30.616 205.308 31.092 205.308C31.7453 205.308 32.3193 205.448 32.814 205.728C33.3087 206.008 33.6913 206.405 33.962 206.918C34.242 207.422 34.382 208.015 34.382 208.696C34.382 209.424 34.2327 210.054 33.934 210.586C33.6353 211.109 33.22 211.515 32.688 211.804C32.1653 212.084 31.5587 212.224 30.868 212.224ZM30.896 211.048C31.5493 211.048 32.0813 210.843 32.492 210.432C32.912 210.012 33.122 209.433 33.122 208.696C33.122 208.239 33.0333 207.842 32.856 207.506C32.6787 207.17 32.4313 206.913 32.114 206.736C31.7967 206.549 31.428 206.456 31.008 206.456C30.56 206.456 30.1587 206.549 29.804 206.736C29.4493 206.913 29.1693 207.17 28.964 207.506C28.7587 207.842 28.656 208.239 28.656 208.696C28.656 209.153 28.7447 209.559 28.922 209.914C29.1087 210.269 29.37 210.549 29.706 210.754C30.042 210.95 30.4387 211.048 30.896 211.048ZM39.5903 212.224C38.7877 212.224 38.0923 212.014 37.5043 211.594C36.9163 211.174 36.459 210.577 36.1323 209.802C35.815 209.027 35.6563 208.108 35.6563 207.044C35.6563 205.98 35.815 205.061 36.1323 204.286C36.459 203.502 36.9163 202.9 37.5043 202.48C38.0923 202.051 38.7877 201.836 39.5903 201.836C40.4023 201.836 41.1023 202.051 41.6903 202.48C42.2783 202.9 42.731 203.497 43.0483 204.272C43.375 205.047 43.5383 205.971 43.5383 207.044C43.5383 208.108 43.375 209.027 43.0483 209.802C42.731 210.577 42.2783 211.174 41.6903 211.594C41.1023 212.014 40.4023 212.224 39.5903 212.224ZM39.5903 211.048C40.449 211.048 41.1117 210.703 41.5783 210.012C42.045 209.312 42.2783 208.323 42.2783 207.044C42.2783 206.185 42.171 205.457 41.9563 204.86C41.751 204.253 41.4477 203.796 41.0463 203.488C40.6543 203.171 40.169 203.012 39.5903 203.012C39.021 203.012 38.5357 203.171 38.1343 203.488C37.7423 203.796 37.439 204.253 37.2243 204.86C37.019 205.457 36.9163 206.185 36.9163 207.044C36.9163 208.323 37.1497 209.312 37.6163 210.012C38.083 210.703 38.741 211.048 39.5903 211.048Z" fill="white"/>
<path d="M31.974 260V257.844H26.92V256.752L31.89 250.06H33.178V256.668H34.41V257.844H33.178V260H31.974ZM28.376 256.668H31.974V251.908L28.376 256.668ZM39.4673 260.224C38.6646 260.224 37.9693 260.014 37.3813 259.594C36.7933 259.174 36.3359 258.577 36.0093 257.802C35.6919 257.027 35.5333 256.108 35.5333 255.044C35.5333 253.98 35.6919 253.061 36.0093 252.286C36.3359 251.502 36.7933 250.9 37.3813 250.48C37.9693 250.051 38.6646 249.836 39.4673 249.836C40.2793 249.836 40.9793 250.051 41.5673 250.48C42.1553 250.9 42.6079 251.497 42.9253 252.272C43.2519 253.047 43.4153 253.971 43.4153 255.044C43.4153 256.108 43.2519 257.027 42.9253 257.802C42.6079 258.577 42.1553 259.174 41.5673 259.594C40.9793 260.014 40.2793 260.224 39.4673 260.224ZM39.4673 259.048C40.3259 259.048 40.9886 258.703 41.4553 258.012C41.9219 257.312 42.1553 256.323 42.1553 255.044C42.1553 254.185 42.0479 253.457 41.8333 252.86C41.6279 252.253 41.3246 251.796 40.9233 251.488C40.5313 251.171 40.0459 251.012 39.4673 251.012C38.8979 251.012 38.4126 251.171 38.0113 251.488C37.6193 251.796 37.3159 252.253 37.1013 252.86C36.8959 253.457 36.7933 254.185 36.7933 255.044C36.7933 256.323 37.0266 257.312 37.4933 258.012C37.9599 258.703 38.6179 259.048 39.4673 259.048Z" fill="white"/>
<path d="M27.34 308C27.34 307.3 27.4473 306.67 27.662 306.11C27.886 305.541 28.2733 304.999 28.824 304.486C29.384 303.973 30.1587 303.455 31.148 302.932C31.6053 302.689 31.974 302.465 32.254 302.26C32.534 302.055 32.7393 301.835 32.87 301.602C33.0007 301.369 33.066 301.084 33.066 300.748C33.066 300.403 32.9913 300.104 32.842 299.852C32.6927 299.591 32.4687 299.385 32.17 299.236C31.8807 299.087 31.5167 299.012 31.078 299.012C30.378 299.012 29.8227 299.194 29.412 299.558C29.0107 299.922 28.7587 300.44 28.656 301.112L27.396 301.028C27.508 300.057 27.8813 299.283 28.516 298.704C29.1507 298.125 30.0047 297.836 31.078 297.836C31.7593 297.836 32.3427 297.957 32.828 298.2C33.3133 298.443 33.682 298.783 33.934 299.222C34.1953 299.651 34.326 300.151 34.326 300.72C34.326 301.224 34.242 301.663 34.074 302.036C33.906 302.4 33.6213 302.741 33.22 303.058C32.828 303.375 32.2867 303.716 31.596 304.08C30.7 304.556 30.0187 305.037 29.552 305.522C29.0947 306.007 28.852 306.441 28.824 306.824H34.326V308H27.34ZM39.3853 308.224C38.5826 308.224 37.8873 308.014 37.2993 307.594C36.7113 307.174 36.2539 306.577 35.9273 305.802C35.6099 305.027 35.4513 304.108 35.4513 303.044C35.4513 301.98 35.6099 301.061 35.9273 300.286C36.2539 299.502 36.7113 298.9 37.2993 298.48C37.8873 298.051 38.5826 297.836 39.3853 297.836C40.1973 297.836 40.8973 298.051 41.4853 298.48C42.0733 298.9 42.5259 299.497 42.8433 300.272C43.1699 301.047 43.3333 301.971 43.3333 303.044C43.3333 304.108 43.1699 305.027 42.8433 305.802C42.5259 306.577 42.0733 307.174 41.4853 307.594C40.8973 308.014 40.1973 308.224 39.3853 308.224ZM39.3853 307.048C40.2439 307.048 40.9066 306.703 41.3733 306.012C41.8399 305.312 42.0733 304.323 42.0733 303.044C42.0733 302.185 41.9659 301.457 41.7513 300.86C41.5459 300.253 41.2426 299.796 40.8413 299.488C40.4493 299.171 39.9639 299.012 39.3853 299.012C38.8159 299.012 38.3306 299.171 37.9293 299.488C37.5373 299.796 37.2339 300.253 37.0193 300.86C36.8139 301.457 36.7113 302.185 36.7113 303.044C36.7113 304.323 36.9446 305.312 37.4113 306.012C37.8779 306.703 38.5359 307.048 39.3853 307.048Z" fill="white"/>
<path d="M35.4924 356.224C34.6897 356.224 33.9944 356.014 33.4064 355.594C32.8184 355.174 32.3611 354.577 32.0344 353.802C31.7171 353.027 31.5584 352.108 31.5584 351.044C31.5584 349.98 31.7171 349.061 32.0344 348.286C32.3611 347.502 32.8184 346.9 33.4064 346.48C33.9944 346.051 34.6897 345.836 35.4924 345.836C36.3044 345.836 37.0044 346.051 37.5924 346.48C38.1804 346.9 38.6331 347.497 38.9504 348.272C39.2771 349.047 39.4404 349.971 39.4404 351.044C39.4404 352.108 39.2771 353.027 38.9504 353.802C38.6331 354.577 38.1804 355.174 37.5924 355.594C37.0044 356.014 36.3044 356.224 35.4924 356.224ZM35.4924 355.048C36.3511 355.048 37.0137 354.703 37.4804 354.012C37.9471 353.312 38.1804 352.323 38.1804 351.044C38.1804 350.185 38.0731 349.457 37.8584 348.86C37.6531 348.253 37.3497 347.796 36.9484 347.488C36.5564 347.171 36.0711 347.012 35.4924 347.012C34.9231 347.012 34.4377 347.171 34.0364 347.488C33.6444 347.796 33.3411 348.253 33.1264 348.86C32.9211 349.457 32.8184 350.185 32.8184 351.044C32.8184 352.323 33.0517 353.312 33.5184 354.012C33.9851 354.703 34.6431 355.048 35.4924 355.048Z" fill="white"/>
<path d="M59 112H517" stroke="#E5E7EB" stroke-linecap="round" stroke-dasharray="6 6"/>
<path d="M59 160H517" stroke="#E5E7EB" stroke-linecap="round" stroke-dasharray="6 6"/>
<path d="M59 208H517" stroke="#E5E7EB" stroke-linecap="round" stroke-dasharray="6 6"/>
<path d="M59 256H517" stroke="#E5E7EB" stroke-linecap="round" stroke-dasharray="6 6"/>
<path d="M59 304H517" stroke="#E5E7EB" stroke-linecap="round" stroke-dasharray="6 6"/>
<path d="M59 352H517" stroke="#E5E7EB" stroke-linecap="round" stroke-dasharray="6 6"/>
<path d="M76 220C76 216.686 78.6863 214 82 214H110C113.314 214 116 216.686 116 220V353H76V220Z" fill="url(#paint0_linear_537_6232)"/>
<path d="M151 154C151 150.686 153.686 148 157 148H185C188.314 148 191 150.686 191 154V353H151V154Z" fill="url(#paint1_linear_537_6232)"/>
<path d="M226 275C226 271.686 228.686 269 232 269H260C263.314 269 266 271.686 266 275V353H226V275Z" fill="url(#paint2_linear_537_6232)"/>
<path d="M301 193C301 189.686 303.686 187 307 187H335C338.314 187 341 189.686 341 193V353H301V193Z" fill="url(#paint3_linear_537_6232)"/>
<path d="M376 235C376 231.686 378.686 229 382 229H410C413.314 229 416 231.686 416 235V353H376V235Z" fill="url(#paint4_linear_537_6232)"/>
<path d="M451 143C451 139.686 453.686 137 457 137H485C488.314 137 491 139.686 491 143V353H451V143Z" fill="url(#paint5_linear_537_6232)"/>
<path d="M25.376 43V31.64H29.616C30.9173 31.64 31.9307 31.9547 32.656 32.584C33.3813 33.2027 33.744 34.0667 33.744 35.176C33.744 35.912 33.5787 36.552 33.248 37.096C32.9173 37.6293 32.4427 38.04 31.824 38.328C31.216 38.6053 30.48 38.744 29.616 38.744H27.104V43H25.376ZM27.104 37.176H29.568C30.3467 37.176 30.9387 37.0107 31.344 36.68C31.7493 36.3387 31.952 35.8373 31.952 35.176C31.952 34.5253 31.7493 34.04 31.344 33.72C30.9387 33.3893 30.3467 33.224 29.568 33.224H27.104V37.176ZM35.575 43V34.488H37.127L37.191 36.744L37.047 36.696C37.1643 35.928 37.399 35.368 37.751 35.016C38.1137 34.664 38.599 34.488 39.207 34.488H40.023V36.008H39.207C38.7803 36.008 38.423 36.0773 38.135 36.216C37.847 36.3547 37.6283 36.568 37.479 36.856C37.3403 37.144 37.271 37.5173 37.271 37.976V43H35.575ZM44.7352 43.192C43.9246 43.192 43.2153 43.0107 42.6073 42.648C41.9993 42.2853 41.5299 41.768 41.1993 41.096C40.8686 40.424 40.7033 39.64 40.7033 38.744C40.7033 37.8373 40.8686 37.0533 41.1993 36.392C41.5299 35.7307 41.9993 35.2187 42.6073 34.856C43.2153 34.4827 43.9246 34.296 44.7352 34.296C45.5459 34.296 46.2553 34.4827 46.8633 34.856C47.4713 35.2187 47.9406 35.7307 48.2713 36.392C48.6019 37.0533 48.7673 37.8373 48.7673 38.744C48.7673 39.64 48.6019 40.424 48.2713 41.096C47.9406 41.768 47.4713 42.2853 46.8633 42.648C46.2553 43.0107 45.5459 43.192 44.7352 43.192ZM44.7352 41.72C45.4606 41.72 46.0206 41.4587 46.4153 40.936C46.8099 40.4027 47.0073 39.672 47.0073 38.744C47.0073 37.816 46.8099 37.0907 46.4153 36.568C46.0206 36.0347 45.4606 35.768 44.7352 35.768C44.0206 35.768 43.4606 36.0347 43.0553 36.568C42.6606 37.0907 42.4633 37.816 42.4633 38.744C42.4633 39.672 42.6606 40.4027 43.0553 40.936C43.4606 41.4587 44.0206 41.72 44.7352 41.72ZM53.9053 45.592C53.2333 45.592 52.6413 45.4907 52.1293 45.288C51.6173 45.0853 51.1959 44.7973 50.8653 44.424C50.5346 44.0613 50.3106 43.6347 50.1933 43.144L51.9533 43.032C52.0706 43.384 52.2733 43.6613 52.5613 43.864C52.8599 44.0773 53.3079 44.184 53.9053 44.184C54.6093 44.184 55.1479 44.0347 55.5213 43.736C55.9053 43.4373 56.0973 42.984 56.0973 42.376V41.144C55.8946 41.5813 55.5693 41.928 55.1213 42.184C54.6733 42.44 54.1719 42.568 53.6173 42.568C52.9026 42.568 52.2679 42.392 51.7133 42.04C51.1586 41.688 50.7266 41.2027 50.4173 40.584C50.1079 39.9653 49.9533 39.2507 49.9533 38.44C49.9533 37.6187 50.1026 36.8987 50.4013 36.28C50.7106 35.6613 51.1373 35.176 51.6813 34.824C52.2359 34.472 52.8599 34.296 53.5533 34.296C54.1613 34.296 54.6946 34.4347 55.1533 34.712C55.6226 34.9893 55.9586 35.3627 56.1613 35.832V34.488H57.7933V42.328C57.7933 43.032 57.6333 43.624 57.3133 44.104C57.0039 44.5947 56.5559 44.9627 55.9693 45.208C55.3933 45.464 54.7053 45.592 53.9053 45.592ZM53.8893 41.128C54.5506 41.128 55.0786 40.888 55.4733 40.408C55.8786 39.928 56.0866 39.2667 56.0973 38.424C56.1079 37.8693 56.0226 37.3947 55.8413 37C55.6599 36.5947 55.3986 36.2853 55.0573 36.072C54.7266 35.848 54.3373 35.736 53.8893 35.736C53.1959 35.736 52.6573 35.9813 52.2733 36.472C51.8999 36.952 51.7133 37.6027 51.7133 38.424C51.7133 39.256 51.9053 39.9173 52.2893 40.408C52.6839 40.888 53.2173 41.128 53.8893 41.128ZM60.2 43V34.488H61.752L61.816 36.744L61.672 36.696C61.7893 35.928 62.024 35.368 62.376 35.016C62.7387 34.664 63.224 34.488 63.832 34.488H64.648V36.008H63.832C63.4053 36.008 63.048 36.0773 62.76 36.216C62.472 36.3547 62.2533 36.568 62.104 36.856C61.9653 37.144 61.896 37.5173 61.896 37.976V43H60.2ZM69.3602 43.192C68.5283 43.192 67.8083 43.0107 67.2003 42.648C66.6029 42.2853 66.1389 41.768 65.8083 41.096C65.4883 40.424 65.3283 39.64 65.3283 38.744C65.3283 37.848 65.4883 37.0693 65.8083 36.408C66.1389 35.736 66.6029 35.2187 67.2003 34.856C67.7976 34.4827 68.5016 34.296 69.3123 34.296C70.0803 34.296 70.7576 34.4773 71.3443 34.84C71.9309 35.192 72.3843 35.704 72.7043 36.376C73.0349 37.048 73.2003 37.8587 73.2003 38.808V39.24H67.0883C67.1309 40.072 67.3496 40.696 67.7443 41.112C68.1496 41.528 68.6936 41.736 69.3763 41.736C69.8776 41.736 70.2936 41.6187 70.6243 41.384C70.9549 41.1493 71.1843 40.8347 71.3123 40.44L73.0723 40.552C72.8483 41.3413 72.4056 41.9813 71.7443 42.472C71.0936 42.952 70.2989 43.192 69.3602 43.192ZM67.0883 37.96H71.4083C71.3549 37.2027 71.1363 36.6427 70.7523 36.28C70.3789 35.9173 69.8989 35.736 69.3123 35.736C68.7043 35.736 68.2029 35.928 67.8083 36.312C67.4243 36.6853 67.1843 37.2347 67.0883 37.96ZM78.1988 43.192C77.3988 43.192 76.7214 43.0693 76.1668 42.824C75.6228 42.5787 75.2014 42.2427 74.9028 41.816C74.6041 41.3787 74.4334 40.8773 74.3908 40.312L76.1348 40.232C76.2201 40.7013 76.4228 41.0747 76.7428 41.352C77.0628 41.6293 77.5481 41.768 78.1988 41.768C78.7321 41.768 79.1534 41.6827 79.4628 41.512C79.7721 41.3413 79.9268 41.0693 79.9268 40.696C79.9268 40.4933 79.8734 40.3227 79.7668 40.184C79.6708 40.0347 79.4788 39.912 79.1908 39.816C78.9028 39.7093 78.4761 39.608 77.9108 39.512C77.0681 39.352 76.4068 39.1653 75.9268 38.952C75.4468 38.7387 75.1054 38.4667 74.9028 38.136C74.7001 37.8053 74.5988 37.4053 74.5988 36.936C74.5988 36.1573 74.8868 35.5227 75.4628 35.032C76.0494 34.5413 76.8921 34.296 77.9908 34.296C78.7268 34.296 79.3454 34.424 79.8468 34.68C80.3481 34.9253 80.7374 35.2613 81.0148 35.688C81.3028 36.104 81.4841 36.5733 81.5588 37.096L79.8148 37.192C79.7614 36.8933 79.6548 36.6373 79.4948 36.424C79.3454 36.2 79.1428 36.0293 78.8868 35.912C78.6308 35.784 78.3268 35.72 77.9748 35.72C77.4308 35.72 77.0254 35.8267 76.7588 36.04C76.4921 36.2533 76.3588 36.5307 76.3588 36.872C76.3588 37.128 76.4174 37.336 76.5348 37.496C76.6628 37.656 76.8654 37.7893 77.1428 37.896C77.4201 37.992 77.7881 38.0773 78.2468 38.152C79.1321 38.3013 79.8254 38.488 80.3268 38.712C80.8281 38.9253 81.1801 39.192 81.3828 39.512C81.5854 39.832 81.6868 40.2213 81.6868 40.68C81.6868 41.2133 81.5374 41.6667 81.2388 42.04C80.9401 42.4133 80.5294 42.7013 80.0068 42.904C79.4841 43.096 78.8814 43.192 78.1988 43.192ZM86.6831 43.192C85.8831 43.192 85.2058 43.0693 84.6511 42.824C84.1071 42.5787 83.6858 42.2427 83.3871 41.816C83.0885 41.3787 82.9178 40.8773 82.8751 40.312L84.6191 40.232C84.7045 40.7013 84.9071 41.0747 85.2271 41.352C85.5471 41.6293 86.0325 41.768 86.6831 41.768C87.2165 41.768 87.6378 41.6827 87.9471 41.512C88.2565 41.3413 88.4111 41.0693 88.4111 40.696C88.4111 40.4933 88.3578 40.3227 88.2511 40.184C88.1551 40.0347 87.9631 39.912 87.6751 39.816C87.3871 39.7093 86.9605 39.608 86.3951 39.512C85.5525 39.352 84.8911 39.1653 84.4111 38.952C83.9311 38.7387 83.5898 38.4667 83.3871 38.136C83.1845 37.8053 83.0831 37.4053 83.0831 36.936C83.0831 36.1573 83.3711 35.5227 83.9471 35.032C84.5338 34.5413 85.3765 34.296 86.4751 34.296C87.2111 34.296 87.8298 34.424 88.3311 34.68C88.8325 34.9253 89.2218 35.2613 89.4991 35.688C89.7871 36.104 89.9685 36.5733 90.0431 37.096L88.2991 37.192C88.2458 36.8933 88.1391 36.6373 87.9791 36.424C87.8298 36.2 87.6271 36.0293 87.3711 35.912C87.1151 35.784 86.8111 35.72 86.4591 35.72C85.9151 35.72 85.5098 35.8267 85.2431 36.04C84.9765 36.2533 84.8431 36.5307 84.8431 36.872C84.8431 37.128 84.9018 37.336 85.0191 37.496C85.1471 37.656 85.3498 37.7893 85.6271 37.896C85.9045 37.992 86.2725 38.0773 86.7311 38.152C87.6165 38.3013 88.3098 38.488 88.8111 38.712C89.3125 38.9253 89.6645 39.192 89.8671 39.512C90.0698 39.832 90.1711 40.2213 90.1711 40.68C90.1711 41.2133 90.0218 41.6667 89.7231 42.04C89.4245 42.4133 89.0138 42.7013 88.4911 42.904C87.9685 43.096 87.3658 43.192 86.6831 43.192ZM98.4144 43V33.224H94.9264V31.64H103.63V33.224H100.142V43H98.4144ZM104.263 43V34.488H105.815L105.879 36.744L105.735 36.696C105.852 35.928 106.087 35.368 106.439 35.016C106.801 34.664 107.287 34.488 107.895 34.488H108.711V36.008H107.895C107.468 36.008 107.111 36.0773 106.823 36.216C106.535 36.3547 106.316 36.568 106.167 36.856C106.028 37.144 105.959 37.5173 105.959 37.976V43H104.263ZM113.423 43.192C112.591 43.192 111.871 43.0107 111.263 42.648C110.665 42.2853 110.201 41.768 109.871 41.096C109.551 40.424 109.391 39.64 109.391 38.744C109.391 37.848 109.551 37.0693 109.871 36.408C110.201 35.736 110.665 35.2187 111.263 34.856C111.86 34.4827 112.564 34.296 113.375 34.296C114.143 34.296 114.82 34.4773 115.407 34.84C115.993 35.192 116.447 35.704 116.767 36.376C117.097 37.048 117.263 37.8587 117.263 38.808V39.24H111.151C111.193 40.072 111.412 40.696 111.807 41.112C112.212 41.528 112.756 41.736 113.439 41.736C113.94 41.736 114.356 41.6187 114.687 41.384C115.017 41.1493 115.247 40.8347 115.375 40.44L117.135 40.552C116.911 41.3413 116.468 41.9813 115.807 42.472C115.156 42.952 114.361 43.192 113.423 43.192ZM111.151 37.96H115.471C115.417 37.2027 115.199 36.6427 114.815 36.28C114.441 35.9173 113.961 35.736 113.375 35.736C112.767 35.736 112.265 35.928 111.871 36.312C111.487 36.6853 111.247 37.2347 111.151 37.96ZM118.981 43V34.488H120.533L120.597 36.76L120.389 36.648C120.485 36.0933 120.667 35.6453 120.933 35.304C121.2 34.9627 121.525 34.712 121.909 34.552C122.293 34.3813 122.709 34.296 123.157 34.296C123.797 34.296 124.325 34.44 124.741 34.728C125.168 35.0053 125.488 35.3893 125.701 35.88C125.925 36.36 126.037 36.9093 126.037 37.528V43H124.341V38.04C124.341 37.5387 124.288 37.1173 124.181 36.776C124.075 36.4347 123.899 36.1733 123.653 35.992C123.408 35.8107 123.088 35.72 122.693 35.72C122.096 35.72 121.611 35.9173 121.237 36.312C120.864 36.7067 120.677 37.2827 120.677 38.04V43H118.981ZM131.271 43.192C130.546 43.192 129.911 43.0107 129.367 42.648C128.834 42.2853 128.423 41.7733 128.135 41.112C127.858 40.44 127.719 39.6507 127.719 38.744C127.719 37.8373 127.863 37.0533 128.151 36.392C128.439 35.72 128.85 35.2027 129.383 34.84C129.916 34.4773 130.546 34.296 131.271 34.296C131.858 34.296 132.38 34.4187 132.839 34.664C133.298 34.9093 133.644 35.2507 133.879 35.688V31.64H135.575V43H133.991L133.943 41.72C133.708 42.1787 133.351 42.5413 132.871 42.808C132.402 43.064 131.868 43.192 131.271 43.192ZM131.719 41.72C132.178 41.72 132.567 41.6027 132.887 41.368C133.207 41.1333 133.452 40.792 133.623 40.344C133.794 39.896 133.879 39.3627 133.879 38.744C133.879 38.104 133.794 37.5653 133.623 37.128C133.452 36.68 133.207 36.344 132.887 36.12C132.567 35.8853 132.178 35.768 131.719 35.768C131.036 35.768 130.492 36.0347 130.087 36.568C129.682 37.0907 129.479 37.816 129.479 38.744C129.479 39.6613 129.682 40.3867 130.087 40.92C130.492 41.4533 131.036 41.72 131.719 41.72Z" fill="white"/>
<path d="M27.92 71V66.36L23.904 59.64H25.536L28.608 64.952L31.68 59.64H33.312L29.296 66.36V71H27.92ZM36.3657 71.192C35.5871 71.192 34.9044 71.0107 34.3177 70.648C33.7311 70.2853 33.2777 69.7733 32.9577 69.112C32.6377 68.44 32.4777 67.656 32.4777 66.76C32.4777 65.8533 32.6377 65.0693 32.9577 64.408C33.2777 63.7467 33.7311 63.2347 34.3177 62.872C34.9044 62.5093 35.5871 62.328 36.3657 62.328C37.1444 62.328 37.8218 62.5093 38.3978 62.872C38.9844 63.2347 39.4378 63.7467 39.7578 64.408C40.0778 65.0693 40.2378 65.8533 40.2378 66.76C40.2378 67.656 40.0778 68.44 39.7578 69.112C39.4378 69.7733 38.9844 70.2853 38.3978 70.648C37.8218 71.0107 37.1444 71.192 36.3657 71.192ZM36.3657 69.912C37.1444 69.912 37.7471 69.6347 38.1737 69.08C38.6111 68.5147 38.8298 67.7413 38.8298 66.76C38.8298 65.7787 38.6111 65.0107 38.1737 64.456C37.7471 63.8907 37.1444 63.608 36.3657 63.608C35.5871 63.608 34.9791 63.8907 34.5417 64.456C34.1044 65.0107 33.8857 65.7787 33.8857 66.76C33.8857 67.7413 34.1044 68.5147 34.5417 69.08C34.9791 69.6347 35.5871 69.912 36.3657 69.912ZM44.5334 71.192C43.6907 71.192 43.0134 70.9093 42.5014 70.344C42 69.768 41.7494 68.9787 41.7494 67.976V62.52H43.0934V67.608C43.0934 68.4293 43.2374 69.0373 43.5254 69.432C43.824 69.816 44.2774 70.008 44.8854 70.008C45.5574 70.008 46.0854 69.7947 46.4694 69.368C46.8534 68.9307 47.0454 68.3333 47.0454 67.576V62.52H48.3894V71H47.1094V68.904L47.3174 69.016C47.1467 69.7093 46.8214 70.248 46.3414 70.632C45.8614 71.0053 45.2587 71.192 44.5334 71.192ZM50.6325 71V62.52H51.8165L51.8805 64.664L51.7525 64.616C51.8592 63.8907 52.0885 63.3627 52.4405 63.032C52.8032 62.6907 53.2832 62.52 53.8805 62.52H54.7125V63.8H53.8965C53.4698 63.8 53.1125 63.88 52.8245 64.04C52.5472 64.1893 52.3338 64.4187 52.1845 64.728C52.0458 65.0267 51.9765 65.4107 51.9765 65.88V71H50.6325ZM63.367 71.192C62.567 71.192 61.8737 71.0107 61.287 70.648C60.711 70.2853 60.263 69.7733 59.943 69.112C59.6337 68.44 59.479 67.656 59.479 66.76C59.479 65.864 59.6337 65.0853 59.943 64.424C60.263 63.7627 60.7057 63.2507 61.271 62.888C61.847 62.5147 62.5243 62.328 63.303 62.328C64.039 62.328 64.6897 62.504 65.255 62.856C65.8203 63.1973 66.2577 63.6987 66.567 64.36C66.887 65.0213 67.047 65.8267 67.047 66.776V67.176H60.887C60.9403 68.0827 61.1803 68.7653 61.607 69.224C62.0443 69.6827 62.631 69.912 63.367 69.912C63.9217 69.912 64.375 69.784 64.727 69.528C65.0897 69.2613 65.3403 68.9147 65.479 68.488L66.919 68.6C66.695 69.3573 66.2683 69.9813 65.639 70.472C65.0203 70.952 64.263 71.192 63.367 71.192ZM60.887 65.992H65.575C65.511 65.1707 65.271 64.568 64.855 64.184C64.4497 63.8 63.9323 63.608 63.303 63.608C62.6523 63.608 62.1137 63.8107 61.687 64.216C61.271 64.6107 61.0043 65.2027 60.887 65.992ZM71.6355 71.192C70.8782 71.192 70.2328 71.0693 69.6995 70.824C69.1768 70.5787 68.7662 70.2427 68.4675 69.816C68.1795 69.3787 68.0142 68.8827 67.9715 68.328L69.3795 68.232C69.4648 68.744 69.6835 69.1547 70.0355 69.464C70.3875 69.7627 70.9208 69.912 71.6355 69.912C72.2115 69.912 72.6702 69.8213 73.0115 69.64C73.3635 69.448 73.5395 69.144 73.5395 68.728C73.5395 68.504 73.4862 68.3173 73.3795 68.168C73.2728 68.0187 73.0648 67.8907 72.7555 67.784C72.4462 67.6667 71.9875 67.5547 71.3795 67.448C70.5688 67.2987 69.9288 67.1173 69.4595 66.904C69.0008 66.68 68.6702 66.408 68.4675 66.088C68.2755 65.7573 68.1795 65.368 68.1795 64.92C68.1795 64.1627 68.4568 63.544 69.0115 63.064C69.5662 62.5733 70.3555 62.328 71.3795 62.328C72.0728 62.328 72.6542 62.456 73.1235 62.712C73.6035 62.9573 73.9768 63.288 74.2435 63.704C74.5208 64.1093 74.7022 64.5573 74.7875 65.048L73.3795 65.144C73.3155 64.8453 73.1982 64.584 73.0275 64.36C72.8568 64.1253 72.6328 63.944 72.3555 63.816C72.0782 63.6773 71.7475 63.608 71.3635 63.608C70.7555 63.608 70.3075 63.7253 70.0195 63.96C69.7315 64.1947 69.5875 64.4933 69.5875 64.856C69.5875 65.1333 69.6515 65.3627 69.7795 65.544C69.9182 65.7147 70.1368 65.8587 70.4355 65.976C70.7342 66.0827 71.1342 66.1787 71.6355 66.264C72.4995 66.4133 73.1715 66.5947 73.6515 66.808C74.1315 67.0213 74.4675 67.2827 74.6595 67.592C74.8515 67.9013 74.9475 68.28 74.9475 68.728C74.9475 69.2507 74.7982 69.6987 74.4995 70.072C74.2115 70.4347 73.8168 70.712 73.3155 70.904C72.8248 71.096 72.2648 71.192 71.6355 71.192ZM79.5499 71.192C78.7925 71.192 78.1472 71.0693 77.6139 70.824C77.0912 70.5787 76.6805 70.2427 76.3819 69.816C76.0939 69.3787 75.9285 68.8827 75.8859 68.328L77.2939 68.232C77.3792 68.744 77.5979 69.1547 77.9499 69.464C78.3019 69.7627 78.8352 69.912 79.5499 69.912C80.1259 69.912 80.5845 69.8213 80.9259 69.64C81.2779 69.448 81.4539 69.144 81.4539 68.728C81.4539 68.504 81.4005 68.3173 81.2939 68.168C81.1872 68.0187 80.9792 67.8907 80.6699 67.784C80.3605 67.6667 79.9019 67.5547 79.2939 67.448C78.4832 67.2987 77.8432 67.1173 77.3739 66.904C76.9152 66.68 76.5845 66.408 76.3819 66.088C76.1899 65.7573 76.0939 65.368 76.0939 64.92C76.0939 64.1627 76.3712 63.544 76.9259 63.064C77.4805 62.5733 78.2699 62.328 79.2939 62.328C79.9872 62.328 80.5685 62.456 81.0379 62.712C81.5179 62.9573 81.8912 63.288 82.1579 63.704C82.4352 64.1093 82.6165 64.5573 82.7019 65.048L81.2939 65.144C81.2299 64.8453 81.1125 64.584 80.9419 64.36C80.7712 64.1253 80.5472 63.944 80.2699 63.816C79.9925 63.6773 79.6619 63.608 79.2779 63.608C78.6699 63.608 78.2219 63.7253 77.9339 63.96C77.6459 64.1947 77.5019 64.4933 77.5019 64.856C77.5019 65.1333 77.5659 65.3627 77.6939 65.544C77.8325 65.7147 78.0512 65.8587 78.3499 65.976C78.6485 66.0827 79.0485 66.1787 79.5499 66.264C80.4139 66.4133 81.0859 66.5947 81.5659 66.808C82.0459 67.0213 82.3819 67.2827 82.5739 67.592C82.7659 67.9013 82.8619 68.28 82.8619 68.728C82.8619 69.2507 82.7125 69.6987 82.4139 70.072C82.1259 70.4347 81.7312 70.712 81.2299 70.904C80.7392 71.096 80.1792 71.192 79.5499 71.192ZM86.883 71.192C86.0083 71.192 85.3097 70.9893 84.787 70.584C84.275 70.1787 84.019 69.6133 84.019 68.888C84.019 68.1627 84.2323 67.592 84.659 67.176C85.0857 66.76 85.763 66.4667 86.691 66.296L89.699 65.736C89.699 65.0213 89.5283 64.488 89.187 64.136C88.8563 63.784 88.355 63.608 87.683 63.608C87.0963 63.608 86.6323 63.7413 86.291 64.008C85.9497 64.264 85.715 64.6373 85.587 65.128L84.163 65.016C84.323 64.216 84.707 63.5707 85.315 63.08C85.9337 62.5787 86.723 62.328 87.683 62.328C88.771 62.328 89.603 62.6373 90.179 63.256C90.755 63.864 91.043 64.7067 91.043 65.784V69.288C91.043 69.48 91.075 69.6187 91.139 69.704C91.2137 69.7787 91.331 69.816 91.491 69.816H91.827V71C91.7843 71.0107 91.715 71.016 91.619 71.016C91.523 71.0267 91.4217 71.032 91.315 71.032C90.931 71.032 90.6163 70.9733 90.371 70.856C90.1363 70.728 89.9657 70.536 89.859 70.28C89.7523 70.0133 89.699 69.6667 89.699 69.24L89.859 69.272C89.7843 69.6347 89.603 69.9653 89.315 70.264C89.027 70.552 88.6697 70.7813 88.243 70.952C87.8163 71.112 87.363 71.192 86.883 71.192ZM87.011 70.008C87.5763 70.008 88.0563 69.9013 88.451 69.688C88.8563 69.464 89.1657 69.1653 89.379 68.792C89.5923 68.408 89.699 67.9813 89.699 67.512V66.904L86.947 67.416C86.371 67.5227 85.971 67.688 85.747 67.912C85.5337 68.1253 85.427 68.408 85.427 68.76C85.427 69.1547 85.5657 69.464 85.843 69.688C86.131 69.9013 86.5203 70.008 87.011 70.008ZM93.0649 73.4V72.216H94.0409C94.3395 72.216 94.5582 72.168 94.6969 72.072C94.8462 71.9867 94.9582 71.8427 95.0329 71.64L95.3369 70.84H94.8729L91.7689 62.52H93.2409L95.7689 69.592L98.1849 62.52H99.6569L96.2169 72.072C96.0569 72.5307 95.8169 72.8667 95.4969 73.08C95.1769 73.2933 94.7342 73.4 94.1689 73.4H93.0649ZM107.739 71.192C106.981 71.192 106.336 71.0693 105.803 70.824C105.28 70.5787 104.869 70.2427 104.571 69.816C104.283 69.3787 104.117 68.8827 104.075 68.328L105.483 68.232C105.568 68.744 105.787 69.1547 106.139 69.464C106.491 69.7627 107.024 69.912 107.739 69.912C108.315 69.912 108.773 69.8213 109.115 69.64C109.467 69.448 109.643 69.144 109.643 68.728C109.643 68.504 109.589 68.3173 109.483 68.168C109.376 68.0187 109.168 67.8907 108.859 67.784C108.549 67.6667 108.091 67.5547 107.483 67.448C106.672 67.2987 106.032 67.1173 105.563 66.904C105.104 66.68 104.773 66.408 104.571 66.088C104.379 65.7573 104.283 65.368 104.283 64.92C104.283 64.1627 104.56 63.544 105.115 63.064C105.669 62.5733 106.459 62.328 107.483 62.328C108.176 62.328 108.757 62.456 109.227 62.712C109.707 62.9573 110.08 63.288 110.347 63.704C110.624 64.1093 110.805 64.5573 110.891 65.048L109.483 65.144C109.419 64.8453 109.301 64.584 109.131 64.36C108.96 64.1253 108.736 63.944 108.459 63.816C108.181 63.6773 107.851 63.608 107.467 63.608C106.859 63.608 106.411 63.7253 106.123 63.96C105.835 64.1947 105.691 64.4933 105.691 64.856C105.691 65.1333 105.755 65.3627 105.883 65.544C106.021 65.7147 106.24 65.8587 106.539 65.976C106.837 66.0827 107.237 66.1787 107.739 66.264C108.603 66.4133 109.275 66.5947 109.755 66.808C110.235 67.0213 110.571 67.2827 110.763 67.592C110.955 67.9013 111.051 68.28 111.051 68.728C111.051 69.2507 110.901 69.6987 110.603 70.072C110.315 70.4347 109.92 70.712 109.419 70.904C108.928 71.096 108.368 71.192 107.739 71.192ZM115.877 71.192C115.088 71.192 114.4 71.0107 113.813 70.648C113.237 70.2853 112.789 69.7733 112.469 69.112C112.149 68.44 111.989 67.656 111.989 66.76C111.989 65.864 112.149 65.0853 112.469 64.424C112.789 63.7627 113.237 63.2507 113.813 62.888C114.4 62.5147 115.088 62.328 115.877 62.328C116.528 62.328 117.104 62.4453 117.605 62.68C118.117 62.904 118.533 63.2347 118.853 63.672C119.173 64.1093 119.381 64.6427 119.477 65.272L118.069 65.368C117.973 64.8027 117.728 64.3707 117.333 64.072C116.938 63.7627 116.453 63.608 115.877 63.608C115.098 63.608 114.49 63.8907 114.053 64.456C113.616 65.0107 113.397 65.7787 113.397 66.76C113.397 67.7413 113.616 68.5147 114.053 69.08C114.49 69.6347 115.098 69.912 115.877 69.912C116.453 69.912 116.938 69.752 117.333 69.432C117.728 69.112 117.973 68.632 118.069 67.992L119.477 68.088C119.381 68.7173 119.173 69.2667 118.853 69.736C118.533 70.1947 118.117 70.552 117.605 70.808C117.104 71.064 116.528 71.192 115.877 71.192ZM124.135 71.192C123.356 71.192 122.674 71.0107 122.087 70.648C121.5 70.2853 121.047 69.7733 120.727 69.112C120.407 68.44 120.247 67.656 120.247 66.76C120.247 65.8533 120.407 65.0693 120.727 64.408C121.047 63.7467 121.5 63.2347 122.087 62.872C122.674 62.5093 123.356 62.328 124.135 62.328C124.914 62.328 125.591 62.5093 126.167 62.872C126.754 63.2347 127.207 63.7467 127.527 64.408C127.847 65.0693 128.007 65.8533 128.007 66.76C128.007 67.656 127.847 68.44 127.527 69.112C127.207 69.7733 126.754 70.2853 126.167 70.648C125.591 71.0107 124.914 71.192 124.135 71.192ZM124.135 69.912C124.914 69.912 125.516 69.6347 125.943 69.08C126.38 68.5147 126.599 67.7413 126.599 66.76C126.599 65.7787 126.38 65.0107 125.943 64.456C125.516 63.8907 124.914 63.608 124.135 63.608C123.356 63.608 122.748 63.8907 122.311 64.456C121.874 65.0107 121.655 65.7787 121.655 66.76C121.655 67.7413 121.874 68.5147 122.311 69.08C122.748 69.6347 123.356 69.912 124.135 69.912ZM129.519 71V62.52H130.703L130.767 64.664L130.639 64.616C130.745 63.8907 130.975 63.3627 131.327 63.032C131.689 62.6907 132.169 62.52 132.767 62.52H133.599V63.8H132.783C132.356 63.8 131.999 63.88 131.711 64.04C131.433 64.1893 131.22 64.4187 131.071 64.728C130.932 65.0267 130.863 65.4107 130.863 65.88V71H129.519ZM137.933 71.192C137.133 71.192 136.439 71.0107 135.853 70.648C135.277 70.2853 134.829 69.7733 134.509 69.112C134.199 68.44 134.045 67.656 134.045 66.76C134.045 65.864 134.199 65.0853 134.509 64.424C134.829 63.7627 135.271 63.2507 135.837 62.888C136.413 62.5147 137.09 62.328 137.869 62.328C138.605 62.328 139.255 62.504 139.821 62.856C140.386 63.1973 140.823 63.6987 141.133 64.36C141.453 65.0213 141.613 65.8267 141.613 66.776V67.176H135.453C135.506 68.0827 135.746 68.7653 136.173 69.224C136.61 69.6827 137.197 69.912 137.933 69.912C138.487 69.912 138.941 69.784 139.293 69.528C139.655 69.2613 139.906 68.9147 140.045 68.488L141.485 68.6C141.261 69.3573 140.834 69.9813 140.205 70.472C139.586 70.952 138.829 71.192 137.933 71.192ZM135.453 65.992H140.141C140.077 65.1707 139.837 64.568 139.421 64.184C139.015 63.8 138.498 63.608 137.869 63.608C137.218 63.608 136.679 63.8107 136.253 64.216C135.837 64.6107 135.57 65.2027 135.453 65.992ZM146.201 71.192C145.444 71.192 144.798 71.0693 144.265 70.824C143.742 70.5787 143.332 70.2427 143.033 69.816C142.745 69.3787 142.58 68.8827 142.537 68.328L143.945 68.232C144.03 68.744 144.249 69.1547 144.601 69.464C144.953 69.7627 145.486 69.912 146.201 69.912C146.777 69.912 147.236 69.8213 147.577 69.64C147.929 69.448 148.105 69.144 148.105 68.728C148.105 68.504 148.052 68.3173 147.945 68.168C147.838 68.0187 147.63 67.8907 147.321 67.784C147.012 67.6667 146.553 67.5547 145.945 67.448C145.134 67.2987 144.494 67.1173 144.025 66.904C143.566 66.68 143.236 66.408 143.033 66.088C142.841 65.7573 142.745 65.368 142.745 64.92C142.745 64.1627 143.022 63.544 143.577 63.064C144.132 62.5733 144.921 62.328 145.945 62.328C146.638 62.328 147.22 62.456 147.689 62.712C148.169 62.9573 148.542 63.288 148.809 63.704C149.086 64.1093 149.268 64.5573 149.353 65.048L147.945 65.144C147.881 64.8453 147.764 64.584 147.593 64.36C147.422 64.1253 147.198 63.944 146.921 63.816C146.644 63.6773 146.313 63.608 145.929 63.608C145.321 63.608 144.873 63.7253 144.585 63.96C144.297 64.1947 144.153 64.4933 144.153 64.856C144.153 65.1333 144.217 65.3627 144.345 65.544C144.484 65.7147 144.702 65.8587 145.001 65.976C145.3 66.0827 145.7 66.1787 146.201 66.264C147.065 66.4133 147.737 66.5947 148.217 66.808C148.697 67.0213 149.033 67.2827 149.225 67.592C149.417 67.9013 149.513 68.28 149.513 68.728C149.513 69.2507 149.364 69.6987 149.065 70.072C148.777 70.4347 148.382 70.712 147.881 70.904C147.39 71.096 146.83 71.192 146.201 71.192ZM158.176 71.192C157.397 71.192 156.714 71.0107 156.128 70.648C155.541 70.2853 155.088 69.7733 154.768 69.112C154.448 68.44 154.288 67.656 154.288 66.76C154.288 65.8533 154.448 65.0693 154.768 64.408C155.088 63.7467 155.541 63.2347 156.128 62.872C156.714 62.5093 157.397 62.328 158.176 62.328C158.954 62.328 159.632 62.5093 160.208 62.872C160.794 63.2347 161.248 63.7467 161.568 64.408C161.888 65.0693 162.048 65.8533 162.048 66.76C162.048 67.656 161.888 68.44 161.568 69.112C161.248 69.7733 160.794 70.2853 160.208 70.648C159.632 71.0107 158.954 71.192 158.176 71.192ZM158.176 69.912C158.954 69.912 159.557 69.6347 159.984 69.08C160.421 68.5147 160.64 67.7413 160.64 66.76C160.64 65.7787 160.421 65.0107 159.984 64.456C159.557 63.8907 158.954 63.608 158.176 63.608C157.397 63.608 156.789 63.8907 156.352 64.456C155.914 65.0107 155.696 65.7787 155.696 66.76C155.696 67.7413 155.914 68.5147 156.352 69.08C156.789 69.6347 157.397 69.912 158.176 69.912ZM165.469 71L162.381 62.52H163.853L166.317 69.624L168.781 62.52H170.253L167.165 71H165.469ZM174.458 71.192C173.658 71.192 172.964 71.0107 172.378 70.648C171.802 70.2853 171.354 69.7733 171.034 69.112C170.724 68.44 170.57 67.656 170.57 66.76C170.57 65.864 170.724 65.0853 171.034 64.424C171.354 63.7627 171.796 63.2507 172.362 62.888C172.938 62.5147 173.615 62.328 174.394 62.328C175.13 62.328 175.78 62.504 176.346 62.856C176.911 63.1973 177.348 63.6987 177.658 64.36C177.978 65.0213 178.138 65.8267 178.138 66.776V67.176H171.978C172.031 68.0827 172.271 68.7653 172.698 69.224C173.135 69.6827 173.722 69.912 174.458 69.912C175.012 69.912 175.466 69.784 175.818 69.528C176.18 69.2613 176.431 68.9147 176.57 68.488L178.01 68.6C177.786 69.3573 177.359 69.9813 176.73 70.472C176.111 70.952 175.354 71.192 174.458 71.192ZM171.978 65.992H176.666C176.602 65.1707 176.362 64.568 175.946 64.184C175.54 63.8 175.023 63.608 174.394 63.608C173.743 63.608 173.204 63.8107 172.778 64.216C172.362 64.6107 172.095 65.2027 171.978 65.992ZM179.638 71V62.52H180.822L180.886 64.664L180.758 64.616C180.865 63.8907 181.094 63.3627 181.446 63.032C181.809 62.6907 182.289 62.52 182.886 62.52H183.718V63.8H182.902C182.475 63.8 182.118 63.88 181.83 64.04C181.553 64.1893 181.339 64.4187 181.19 64.728C181.051 65.0267 180.982 65.4107 180.982 65.88V71H179.638ZM192.165 71C191.397 71 190.826 70.824 190.453 70.472C190.09 70.12 189.909 69.5707 189.909 68.824V60.536H191.253V68.792C191.253 69.176 191.338 69.4427 191.509 69.592C191.679 69.7413 191.941 69.816 192.293 69.816H193.509V71H192.165ZM188.661 63.704V62.52H193.509V63.704H188.661ZM194.913 71V62.52H196.257V71H194.913ZM194.881 61.192V59.624H196.289V61.192H194.881ZM198.655 71V62.52H199.887L199.935 64.664L199.743 64.6C199.839 64.1307 200.004 63.7307 200.239 63.4C200.484 63.0587 200.783 62.7973 201.135 62.616C201.487 62.424 201.876 62.328 202.303 62.328C203.039 62.328 203.636 62.5307 204.095 62.936C204.564 63.3413 204.858 63.9067 204.975 64.632L204.719 64.616C204.804 64.1253 204.959 63.7147 205.183 63.384C205.418 63.0427 205.716 62.7813 206.079 62.6C206.442 62.4187 206.858 62.328 207.327 62.328C207.935 62.328 208.447 62.456 208.863 62.712C209.279 62.9573 209.594 63.32 209.807 63.8C210.02 64.28 210.127 64.8613 210.127 65.544V71H208.783V65.832C208.783 65.064 208.634 64.488 208.335 64.104C208.036 63.7093 207.594 63.512 207.007 63.512C206.612 63.512 206.266 63.608 205.967 63.8C205.679 63.992 205.455 64.2693 205.295 64.632C205.135 64.984 205.055 65.416 205.055 65.928V71H203.711V65.928C203.711 65.1707 203.578 64.5787 203.311 64.152C203.044 63.7253 202.596 63.512 201.967 63.512C201.572 63.512 201.226 63.608 200.927 63.8C200.639 63.992 200.41 64.2693 200.239 64.632C200.079 64.9947 199.999 65.4267 199.999 65.928V71H198.655ZM215.491 71.192C214.691 71.192 213.997 71.0107 213.411 70.648C212.835 70.2853 212.387 69.7733 212.067 69.112C211.757 68.44 211.603 67.656 211.603 66.76C211.603 65.864 211.757 65.0853 212.067 64.424C212.387 63.7627 212.829 63.2507 213.395 62.888C213.971 62.5147 214.648 62.328 215.427 62.328C216.163 62.328 216.813 62.504 217.379 62.856C217.944 63.1973 218.381 63.6987 218.691 64.36C219.011 65.0213 219.171 65.8267 219.171 66.776V67.176H213.011C213.064 68.0827 213.304 68.7653 213.731 69.224C214.168 69.6827 214.755 69.912 215.491 69.912C216.045 69.912 216.499 69.784 216.851 69.528C217.213 69.2613 217.464 68.9147 217.603 68.488L219.043 68.6C218.819 69.3573 218.392 69.9813 217.763 70.472C217.144 70.952 216.387 71.192 215.491 71.192ZM213.011 65.992H217.699C217.635 65.1707 217.395 64.568 216.979 64.184C216.573 63.8 216.056 63.608 215.427 63.608C214.776 63.608 214.237 63.8107 213.811 64.216C213.395 64.6107 213.128 65.2027 213.011 65.992Z" fill="white"/>
<defs>
<linearGradient id="paint0_linear_537_6232" x1="76" y1="283.5" x2="116" y2="283.5" gradientUnits="userSpaceOnUse">
<stop stop-color="#FFC14E"/>
<stop offset="1" stop-color="#C79B4A"/>
</linearGradient>
<linearGradient id="paint1_linear_537_6232" x1="151" y1="250.5" x2="191" y2="250.5" gradientUnits="userSpaceOnUse">
<stop stop-color="#FFC14E"/>
<stop offset="1" stop-color="#C79B4A"/>
</linearGradient>
<linearGradient id="paint2_linear_537_6232" x1="226" y1="311" x2="266" y2="311" gradientUnits="userSpaceOnUse">
<stop stop-color="#FFC14E"/>
<stop offset="1" stop-color="#C79B4A"/>
</linearGradient>
<linearGradient id="paint3_linear_537_6232" x1="301" y1="270" x2="341" y2="270" gradientUnits="userSpaceOnUse">
<stop stop-color="#FFC14E"/>
<stop offset="1" stop-color="#C79B4A"/>
</linearGradient>
<linearGradient id="paint4_linear_537_6232" x1="376" y1="291" x2="416" y2="291" gradientUnits="userSpaceOnUse">
<stop stop-color="#FFC14E"/>
<stop offset="1" stop-color="#C79B4A"/>
</linearGradient>
<linearGradient id="paint5_linear_537_6232" x1="451" y1="245" x2="491" y2="245" gradientUnits="userSpaceOnUse">
<stop stop-color="#FFC14E"/>
<stop offset="1" stop-color="#C79B4A"/>
</linearGradient>
</defs>
</svg>
